<?xml version="1.0" standalone="no"?>
<!DOCTYPE svg PUBLIC "-//W3C//DTD SVG 20010904//EN"
 "http://www.w3.org/TR/2001/REC-SVG-20010904/DTD/svg10.dtd">
<svg version="1.0" xmlns="http://www.w3.org/2000/svg"
 width="1024.000000pt" height="1024.000000pt" viewBox="0 0 1024.000000 1024.000000"
 preserveAspectRatio="xMidYMid meet">

<g transform="translate(0.000000,1024.000000) scale(0.100000,-0.100000)"
fill="#000000" stroke="none">
<path d="M5080 8801 c-14 -5 -164 -73 -335 -153 -170 -81 -494 -232 -720 -338
-924 -432 -947 -443 -958 -467 -7 -16 -7 -33 -1 -51 10 -31 2 -26 424 -228
271 -130 370 -177 836 -397 111 -52 329 -152 484 -222 259 -116 287 -127 329
-123 31 3 121 40 271 110 625 292 876 412 890 424 9 9 11 17 5 23 -6 5 -91 46
-190 91 -99 46 -238 112 -310 148 -71 35 -272 129 -445 209 -173 79 -322 151
-332 160 -29 26 -22 51 20 69 72 31 111 23 322 -74 308 -142 1001 -471 1048
-498 l42 -25 0 -243 0 -243 -26 -24 c-15 -13 -33 -38 -40 -56 -27 -63 -12
-168 29 -202 23 -18 23 -25 -19 -368 -36 -290 -36 -303 -20 -328 24 -37 76
-56 155 -57 94 0 151 26 172 79 5 14 -6 138 -28 333 -23 199 -33 317 -27 325
41 56 48 73 52 125 5 65 -21 128 -63 156 l-25 16 0 260 0 259 278 137 c238
118 278 141 286 165 17 47 -14 73 -174 147 -80 37 -282 131 -450 209 -167 79
-424 198 -570 266 -146 68 -384 179 -530 248 -229 108 -329 149 -350 146 -3 0
-16 -4 -30 -8z"/>
<path d="M3806 7018 c2 -128 6 -258 8 -289 18 -279 509 -525 1156 -580 452
-38 1019 107 1253 321 43 39 60 64 70 98 13 44 13 47 -20 109 -44 86 -45 156
-5 246 24 51 30 82 34 165 4 56 4 102 2 102 -3 0 -186 -86 -407 -191 -454
-217 -615 -290 -671 -309 -72 -23 -154 -15 -251 25 -111 46 -443 196 -685 310
-243 115 -481 225 -485 225 -2 0 -1 -105 1 -232z"/>
<path d="M3593 6841 c-247 -306 -408 -668 -439 -988 l-7 -73 647 0 c409 0 654
-4 666 -10 10 -5 24 -25 30 -44 9 -28 8 -40 -5 -65 -8 -17 -24 -35 -34 -41
-13 -6 -245 -10 -675 -10 l-656 0 0 -90 c0 -196 37 -413 103 -610 42 -123 42
-124 77 -132 19 -4 148 -13 286 -19 384 -19 828 5 1249 66 196 29 226 36 270
66 87 60 231 310 259 451 42 205 -9 402 -141 547 -84 93 -115 107 -263 121
-184 17 -448 64 -585 104 -349 100 -598 268 -687 461 -20 43 -24 72 -28 196
l-5 146 -62 -76z m1195 -1577 c30 -34 29 -83 -3 -118 l-24 -26 -492 0 -493 0
-28 27 c-44 42 -32 121 22 141 10 4 238 6 507 4 l488 -2 23 -26z"/>
<path d="M6810 6513 c15 -44 60 -275 81 -418 26 -169 35 -420 20 -559 -6 -60
-9 -112 -6 -114 2 -3 47 16 100 41 l95 46 0 100 c0 187 -42 423 -110 616 -40
111 -49 130 -117 233 -55 83 -80 105 -63 55z"/>
<path d="M7023 6508 c2 -7 14 -41 27 -75 l22 -62 67 -6 c365 -35 627 -142 702
-287 34 -67 22 -126 -46 -223 -269 -380 -1208 -826 -2185 -1039 -971 -211
-1808 -267 -2488 -166 -219 33 -378 77 -503 142 -195 100 -242 209 -158 370
62 120 290 317 461 399 l47 22 3 86 c2 47 2 88 1 90 -6 11 -280 -152 -394
-236 -250 -183 -388 -408 -359 -587 41 -253 359 -434 923 -526 422 -69 1083
-69 1647 0 835 102 1663 343 2330 677 321 161 517 292 698 468 172 166 244
294 245 437 1 66 -3 84 -31 141 -93 189 -356 323 -731 372 -137 19 -285 20
-278 3z"/>
<path d="M6850 4803 c-69 -30 -139 -65 -157 -79 -17 -13 -55 -62 -83 -109 -87
-144 -167 -245 -299 -375 -240 -239 -518 -392 -831 -456 -101 -21 -248 -24
-307 -6 -23 7 -70 31 -104 55 -107 72 -163 179 -182 347 l-10 95 -96 -12
c-277 -35 -475 -47 -813 -47 -192 -1 -348 -4 -348 -8 0 -3 48 -55 108 -115
338 -341 750 -532 1263 -584 267 -27 607 33 902 160 222 95 420 226 596 396
182 176 296 328 396 525 48 96 105 237 105 261 0 13 -4 12 -140 -48z"/>
<path d="M3076 3064 c-3 -9 -6 -108 -6 -221 l0 -205 -40 35 c-59 50 -133 70
-235 65 -71 -4 -95 -10 -159 -41 -154 -77 -232 -226 -230 -442 3 -202 85 -345
244 -423 50 -24 66 -27 165 -27 101 0 114 2 162 27 29 16 65 44 80 63 l28 35
5 -52 5 -53 105 0 105 0 3 605 c1 333 0 615 -3 628 -5 21 -10 22 -114 22 -90
0 -110 -3 -115 -16z m-129 -539 c34 -10 65 -29 92 -56 l41 -41 0 -156 0 -156
-49 -46 c-113 -110 -277 -80 -354 64 -30 56 -32 213 -3 266 36 69 92 114 161
131 46 11 57 10 112 -6z"/>
<path d="M1532 3028 c-9 -9 -12 -155 -12 -597 0 -323 4 -592 8 -599 7 -9 95
-12 408 -10 l399 3 3 94 c2 60 -1 98 -9 107 -9 11 -63 14 -285 14 l-274 0 0
145 0 145 234 0 c204 0 235 2 240 16 11 29 7 169 -6 182 -9 9 -76 12 -240 12
l-228 0 0 140 0 140 268 2 267 3 3 94 c2 60 -1 98 -9 107 -16 19 -748 21 -767
2z"/>
<path d="M4364 3025 c-4 -8 94 -282 217 -607 l224 -593 149 0 148 0 43 115
c317 860 396 1081 390 1090 -4 6 -53 10 -121 10 l-115 0 -14 -32 c-21 -53
-307 -849 -317 -888 -10 -32 -15 -20 -103 230 -174 494 -236 664 -247 677 -16
20 -247 18 -254 -2z"/>
<path d="M5800 2726 c-152 -41 -275 -167 -309 -317 -18 -75 -13 -230 8 -298
47 -150 157 -257 306 -295 73 -20 232 -21 300 -2 70 19 154 56 163 73 10 17
-5 144 -18 157 -6 5 -33 -1 -67 -17 -159 -71 -309 -61 -397 27 -36 36 -76 113
-76 148 0 4 132 8 293 8 215 0 296 3 305 12 7 7 12 39 12 75 0 214 -115 381
-294 429 -62 17 -165 17 -226 0z m211 -199 c38 -25 79 -97 79 -139 l0 -28
-185 0 -185 0 6 28 c16 64 57 122 109 150 11 6 47 12 81 12 47 0 69 -5 95 -23z"/>
<path d="M6835 2722 c-32 -10 -66 -33 -96 -62 l-47 -47 0 44 c-1 24 -4 48 -7
53 -10 16 -191 12 -204 -4 -8 -9 -10 -135 -9 -447 l3 -434 104 -3 c71 -2 107
1 111 9 4 6 8 126 8 266 1 238 3 258 22 299 38 78 102 114 202 114 78 0 78 0
78 109 0 62 -4 101 -12 109 -17 17 -94 14 -153 -6z"/>
<path d="M7309 2717 c-121 -42 -186 -104 -210 -200 -22 -89 8 -187 73 -242 44
-38 93 -58 220 -93 121 -33 155 -51 164 -88 29 -117 -195 -142 -375 -43 -75
43 -81 37 -81 -70 0 -88 0 -90 30 -111 70 -50 135 -65 285 -65 130 0 144 2
195 26 144 67 207 193 166 330 -32 110 -113 167 -299 209 -113 26 -157 54
-157 100 0 37 50 80 93 81 103 3 190 -15 262 -55 23 -12 46 -21 53 -18 8 2 12
32 12 93 l0 90 -76 36 c-71 34 -86 37 -183 40 -91 3 -115 0 -172 -20z"/>
<path d="M8185 2727 c-104 -35 -201 -110 -250 -193 -55 -94 -79 -265 -54 -386
35 -169 164 -299 335 -339 127 -29 305 -6 409 54 44 25 46 37 31 141 -9 56 -9
56 -116 10 -56 -25 -78 -28 -160 -28 -110 0 -172 23 -218 80 -28 35 -64 123
-56 136 3 5 135 8 293 8 210 0 290 3 299 12 17 17 15 142 -3 213 -32 122 -114
223 -223 273 -47 21 -74 27 -152 29 -59 2 -110 -2 -135 -10z m216 -200 c38
-25 79 -97 79 -139 l0 -28 -180 0 c-174 0 -180 1 -180 20 0 30 27 91 53 119
51 55 166 70 228 28z"/>
<path d="M3512 2712 c-10 -7 -12 -80 -10 -358 l3 -349 27 -50 c57 -108 145
-160 273 -160 47 0 95 6 115 14 55 23 120 70 132 97 15 33 25 30 20 -6 -2 -16
-1 -41 2 -55 6 -25 8 -25 111 -25 l105 0 -2 448 -3 447 -85 3 c-47 2 -95 0
-107 -3 l-23 -5 0 -268 c0 -147 -5 -285 -10 -306 -19 -85 -81 -131 -177 -131
-67 0 -98 16 -137 69 -20 26 -21 44 -26 334 l-5 307 -95 3 c-52 1 -101 -2
-108 -6z"/>
</g>
</svg>
